<svg width="26" height="26" viewBox="0 0 26 26" fill="none" xmlns="http://www.w3.org/2000/svg">
<path d="M11.9748 25.5C11.5559 25.5 11.2055 25.3589 10.9236 25.0767C10.6413 24.7947 10.5002 24.4443 10.5002 24.0254V14.3783L1.17024 2.52583C0.849682 2.09833 0.803154 1.65389 1.03065 1.1925C1.25843 0.730833 1.6426 0.5 2.18315 0.5H23.8173C24.3579 0.5 24.742 0.730833 24.9698 1.1925C25.1973 1.65389 25.1508 2.09833 24.8302 2.52583L15.5002 14.3783V24.0254C15.5002 24.4443 15.3591 24.7947 15.0769 25.0767C14.795 25.3589 14.4445 25.5 14.0257 25.5H11.9748ZM13.0002 13.5L21.2502 3H4.75024L13.0002 13.5Z" fill="#717171"/>
</svg>
