<svg width="17" height="16" viewBox="0 0 17 16" fill="none" xmlns="http://www.w3.org/2000/svg">
<path d="M6.40001 10H8.50001C8.6889 10 8.84734 9.936 8.97534 9.808C9.10334 9.68 9.16712 9.52178 9.16668 9.33334C9.16623 9.14489 9.10223 8.98667 8.97468 8.85867C8.84712 8.73067 8.6889 8.66667 8.50001 8.66667H6.40001L6.98335 8.06667C7.10557 7.94445 7.16668 7.79178 7.16668 7.60867C7.16668 7.42556 7.10001 7.26711 6.96668 7.13334C6.84446 7.01111 6.6889 6.95 6.50001 6.95C6.31112 6.95 6.15557 7.01111 6.03334 7.13334L4.30001 8.86667C4.16668 9 4.10001 9.15556 4.10001 9.33334C4.10001 9.51111 4.16668 9.66667 4.30001 9.8L6.03334 11.5333C6.15557 11.6556 6.30846 11.7196 6.49201 11.7253C6.67557 11.7311 6.83379 11.6671 6.96668 11.5333C7.0889 11.4111 7.1529 11.2584 7.15868 11.0753C7.16446 10.8922 7.10601 10.7338 6.98335 10.6L6.40001 10ZM10.6 7.33334L10.0167 7.93334C9.89445 8.05556 9.83334 8.20845 9.83334 8.392C9.83334 8.57556 9.90001 8.73378 10.0333 8.86667C10.1556 8.98889 10.3111 9.05 10.5 9.05C10.6889 9.05 10.8445 8.98889 10.9667 8.86667L12.7 7.13334C12.8333 7 12.9 6.84445 12.9 6.66667C12.9 6.48889 12.8333 6.33334 12.7 6.2L10.9667 4.46667C10.8445 4.34445 10.6918 4.28045 10.5087 4.27467C10.3256 4.26889 10.1671 4.33289 10.0333 4.46667C9.91112 4.58889 9.84712 4.74178 9.84134 4.92534C9.83557 5.10889 9.89401 5.26711 10.0167 5.4L10.6 6H8.50001C8.31112 6 8.1529 6.064 8.02534 6.192C7.89779 6.32 7.83379 6.47822 7.83334 6.66667C7.8329 6.85511 7.8969 7.01356 8.02534 7.142C8.15379 7.27045 8.31201 7.33422 8.50001 7.33334H10.6ZM8.50001 14.6667C7.57779 14.6667 6.71112 14.4916 5.90001 14.1413C5.0889 13.7911 4.38334 13.3162 3.78334 12.7167C3.18334 12.1171 2.70846 11.4116 2.35868 10.6C2.0089 9.78845 1.83379 8.92178 1.83334 8C1.8329 7.07822 2.00801 6.21156 2.35868 5.4C2.70934 4.58845 3.18423 3.88289 3.78334 3.28334C4.38246 2.68378 5.08801 2.20889 5.90001 1.85867C6.71201 1.50845 7.57868 1.33334 8.50001 1.33334C9.42134 1.33334 10.288 1.50845 11.1 1.85867C11.912 2.20889 12.6176 2.68378 13.2167 3.28334C13.8158 3.88289 14.2909 4.58845 14.642 5.4C14.9931 6.21156 15.168 7.07822 15.1667 8C15.1653 8.92178 14.9902 9.78845 14.6413 10.6C14.2925 11.4116 13.8176 12.1171 13.2167 12.7167C12.6158 13.3162 11.9102 13.7913 11.1 14.142C10.2898 14.4927 9.42312 14.6676 8.50001 14.6667ZM8.50001 13.3333C9.9889 13.3333 11.25 12.8167 12.2833 11.7833C13.3167 10.75 13.8333 9.48889 13.8333 8C13.8333 6.51111 13.3167 5.25 12.2833 4.21667C11.25 3.18334 9.9889 2.66667 8.50001 2.66667C7.01112 2.66667 5.75001 3.18334 4.71668 4.21667C3.68334 5.25 3.16668 6.51111 3.16668 8C3.16668 9.48889 3.68334 10.75 4.71668 11.7833C5.75001 12.8167 7.01112 13.3333 8.50001 13.3333Z" fill="white"/>
</svg>
